<?xml version="1.0" encoding="utf-8"?>
<!-- Generator: Adobe Illustrator 21.1.0, SVG Export Plug-In . SVG Version: 6.00 Build 0)  -->
<svg version="1.1" id="Layer_1" xmlns="http://www.w3.org/2000/svg" xmlns:xlink="http://www.w3.org/1999/xlink" x="0px" y="0px"
	 viewBox="0 0 1000 1000" style="enable-background:new 0 0 1000 1000;" xml:space="preserve">
<style type="text/css">
	.st0{fill:#D9101E;}
	.st1{fill:#DE832C;}
</style>
<g>
	<g>
		<path class="st0" d="M548.3,382.1c-30.6-22.4-63.8-38.3-98-48.8L185.8,928.2c143.9,86.5,332.5,50.6,433.5-87.6
			C726.4,694.4,694.5,489.1,548.3,382.1z"/>
		<path class="st1" d="M89.7,453.2c-107,146.3-75.2,351.6,71.1,458.6c8.2,6,16.6,11.4,25.1,16.5l264.4-594.9
			C320.4,293.7,174.3,337.5,89.7,453.2z"/>
	</g>
	<polygon class="st0" points="732,140 473,254.3 701.5,421.4 	"/>
	<polygon class="st1" points="217.9,25 115.5,289 395.3,245.6 	"/>
	<polygon class="st0" points="973.6,591.2 709.7,488.9 753.1,768.6 	"/>
</g>
</svg>
